What Happens in Vegas (2008)
PG_13    Comedy | Romance   -  9 May 2008 (USA) 


www.imdb.com/title/tt1033643/
 
http://i1178.photobucket.com/albums/x374/IARG1/WhatHappensinVegasavi_thumbs_20110708_233209.jpg

 
http://i1178.photobucket.com/albums/x374/IARG1/WhatHappensinVegasavi_thumbs_20110708_233209.jpg



A man and a woman are compelled, for legal reasons, to live life as a couple for a limited period of time. At stake is a large amount of money.

Director:
Tom Vaughan

Writer:
Dana Fox

Stars:
Cameron Diaz, Ashton Kutcher and Rob Corddry 



Format                           : AVI
Format/Info                      : Audio Video Interleave
Format profile                   : OpenDML
File size                        : 2.00 GiB
Duration                         : 1h 38mn
Overall bit rate                 : 2 893 Kbps
Writing application              : VirtualDubMod 1.5.4.1 (build 2178/release)
Writing library                  : VirtualDubMod build 2178/release


Language                         : English
Video
ID                               : 0
Format                           : MPEG-4 Visual
Format profile                   : Advanced Simple@L5
Format settings, BVOP            : No
Format settings, QPel            : No
Format settings, GMC             : No warppoints
Format settings, Matrix          : Custom
Codec ID                         : XVID
Codec ID/Hint                    : XviD
Duration                         : 1h 38mn
Bit rate                         : 2 705 Kbps
Width                            : 720 pixels
Height                           : 304 pixels
Display aspect ratio             : 2.35:1
Frame rate                       : 23.976 fps
Color space                      : YUV
Chroma subsampling               : 4:2:0
Bit depth                        : 8 bits
Scan type                        : Progressive
Compression mode                 : Lossy
Bits/(Pixel*Frame)               : 0.515
Stream size                      : 1.87 GiB (93%)
Writing library                  : XviD 64

Audio
ID                               : 1
Format                           : MPEG Audio
Format version                   : Version 1
Format profile                   : Layer 3
Mode                             : Joint stereo
Mode extension                   : MS Stereo
Codec ID                         : 55
Codec ID/Hint                    : MP3
Duration                         : 1h 38mn
Bit rate mode                    : Variable
Bit rate                         : 172 Kbps
Nominal bit rate                 : 192 Kbps
Channel(s)                       : 2 channels
Sampling rate                    : 48.0 KHz
Compression mode                 : Lossy
Stream size                      : 121 MiB (6%)
Alignment                        : Aligned on interleaves
Interleave, duration             : 24 ms (0.58 video frame)
Interleave, preload duration     : 107 ms
Writing library                  : LAME3.98r
Encoding settings                : -m j -V 4 -q 2 -lowpass 18.6 --abr 192



